<svg aria-hidden="true" style="position: absolute; width: 0; height: 0; overflow: hidden;" version="1.1" xmlns="http://www.w3.org/2000/svg" xmlns:xlink="http://www.w3.org/1999/xlink">
<defs>
<symbol id="icon-double-arrow-left" viewBox="0 0 32 32">
<path d="M14.621 8.221c0.417-0.417 0.417-1.092 0-1.508s-1.092-0.417-1.508 0l-8.533 8.533c-0.417 0.417-0.417 1.092 0 1.508l8.533 8.533c0.417 0.416 1.092 0.416 1.508 0s0.417-1.092 0-1.509l-7.779-7.779 7.779-7.779zM27.421 8.221c0.416-0.417 0.416-1.092 0-1.508s-1.092-0.417-1.509 0l-8.533 8.533c-0.417 0.417-0.417 1.092 0 1.508l8.533 8.533c0.417 0.416 1.092 0.416 1.509 0s0.416-1.092 0-1.509l-7.779-7.779 7.779-7.779z"></path>
</symbol>
<symbol id="icon-double-arrow-right-svgrepo-com" viewBox="0 0 32 32">
<path d="M4.579 23.779c-0.417 0.417-0.417 1.092 0 1.509s1.092 0.416 1.508 0l8.533-8.533c0.417-0.417 0.417-1.092 0-1.508l-8.533-8.533c-0.417-0.417-1.092-0.417-1.508 0s-0.417 1.092 0 1.508l7.779 7.779-7.779 7.779zM17.379 23.779c-0.417 0.417-0.417 1.092 0 1.509s1.092 0.416 1.508 0l8.533-8.533c0.416-0.417 0.416-1.092 0-1.508l-8.533-8.533c-0.417-0.417-1.092-0.417-1.508 0s-0.417 1.092 0 1.508l7.779 7.779-7.779 7.779z"></path>
</symbol>
</defs>
</svg>
